<svg version="1.1" id="Layer_1" xmlns="http://www.w3.org/2000/svg" xmlns:xlink="http://www.w3.org/1999/xlink" x="0px" y="0px"
	 width="100%" viewBox="0 0 500 500" enable-background="new 0 0 500 500" xml:space="preserve">
<path fill="#FFFFFF" opacity="1.000000" stroke="none" 
	d="
M273.000000,501.000000 
	C182.000015,501.000000 91.500046,501.000000 1.000049,501.000000 
	C1.000032,334.333405 1.000032,167.666794 1.000016,1.000138 
	C167.666565,1.000092 334.333130,1.000092 500.999756,1.000046 
	C500.999847,167.666519 500.999847,334.333038 500.999939,500.999786 
	C425.166656,501.000000 349.333344,501.000000 273.000000,501.000000 
M386.500000,453.000000 
	C408.168457,453.000000 429.836884,453.000000 450.580963,453.000000 
	C317.348907,319.767944 184.071182,186.490234 51.074081,53.493145 
	C51.082951,53.356651 51.005936,53.989418 51.005844,54.622189 
	C50.999916,96.444199 50.956928,138.266373 51.125729,180.087708 
	C51.134304,182.212845 52.475632,184.825317 54.028065,186.380981 
	C141.711411,274.247192 229.492279,362.016113 317.196777,449.861267 
	C319.505768,452.173981 321.781891,453.088745 325.016846,453.067322 
	C345.177155,452.933807 365.338806,453.000000 386.500000,453.000000 
M318.069153,188.569199 
	C360.221008,146.409637 402.388916,104.266052 444.459778,62.025867 
	C445.974274,60.505257 446.532837,58.032536 447.536896,56.003551 
	C445.324982,55.002380 443.115997,53.134769 440.900757,53.127335 
	C391.442078,52.961273 341.982605,53.051071 292.523773,52.912716 
	C288.111023,52.900372 286.896149,54.233105 286.908417,58.597225 
	C287.048950,108.555641 286.971802,158.514648 287.090393,208.473190 
	C287.095276,210.528610 288.457825,212.580811 289.187866,214.634476 
	C291.116516,213.653381 293.421661,213.062469 294.910614,211.625732 
	C302.578735,204.226349 310.037415,196.609894 318.069153,188.569199 
M137.931534,373.568451 
	C112.274895,347.883575 86.618385,322.198578 60.961082,296.514343 
	C60.137463,295.689850 59.440807,294.589172 58.447441,294.117157 
	C56.795460,293.332306 54.507767,292.056274 53.308285,292.648590 
	C52.039417,293.275177 51.096233,295.841431 51.092255,297.562958 
	C50.978294,346.856140 51.025394,396.149689 50.948074,445.443024 
	C50.942619,448.920044 52.225037,450.185181 55.613194,450.182159 
	C105.239670,450.137970 154.866226,450.167786 204.492615,450.087036 
	C205.969589,450.084625 208.558411,449.252655 208.683197,448.489319 
	C208.923782,447.017731 208.191666,444.930756 207.127655,443.777069 
	C200.703476,436.811401 194.164124,429.945465 187.490097,423.218018 
	C171.187531,406.784943 154.790512,390.445557 137.931534,373.568451 
z"/>
<path fill="#00B6FF" opacity="1.000000" stroke="none" 
	d="
M386.000000,453.000000 
	C365.338806,453.000000 345.177155,452.933807 325.016846,453.067322 
	C321.781891,453.088745 319.505768,452.173981 317.196777,449.861267 
	C229.492279,362.016113 141.711411,274.247192 54.028065,186.380981 
	C52.475632,184.825317 51.134304,182.212845 51.125729,180.087708 
	C50.956928,138.266373 50.999916,96.444199 51.005844,54.622189 
	C51.005936,53.989418 51.082951,53.356651 51.074081,53.493145 
	C184.071182,186.490234 317.348907,319.767944 450.580963,453.000000 
	C429.836884,453.000000 408.168457,453.000000 386.000000,453.000000 
z"/>
<path fill="#00B6FF" opacity="1.000000" stroke="none" 
	d="
M317.819153,188.819214 
	C310.037415,196.609894 302.578735,204.226349 294.910614,211.625732 
	C293.421661,213.062469 291.116516,213.653381 289.187866,214.634491 
	C288.457825,212.580811 287.095276,210.528610 287.090393,208.473190 
	C286.971802,158.514648 287.048950,108.555641 286.908417,58.597225 
	C286.896149,54.233105 288.111023,52.900372 292.523773,52.912716 
	C341.982605,53.051071 391.442078,52.961273 440.900757,53.127335 
	C443.115997,53.134769 445.324982,55.002380 447.536896,56.003555 
	C446.532837,58.032536 445.974274,60.505257 444.459778,62.025867 
	C402.388916,104.266052 360.221008,146.409637 317.819153,188.819214 
z"/>
<path fill="#01B6FF" opacity="1.000000" stroke="none" 
	d="
M138.181519,373.818451 
	C154.790512,390.445557 171.187531,406.784943 187.490097,423.218018 
	C194.164124,429.945465 200.703476,436.811401 207.127655,443.777069 
	C208.191666,444.930756 208.923782,447.017731 208.683197,448.489319 
	C208.558411,449.252655 205.969589,450.084625 204.492615,450.087036 
	C154.866226,450.167786 105.239670,450.137970 55.613194,450.182159 
	C52.225037,450.185181 50.942619,448.920044 50.948074,445.443024 
	C51.025394,396.149689 50.978294,346.856140 51.092255,297.562958 
	C51.096233,295.841431 52.039417,293.275177 53.308285,292.648590 
	C54.507767,292.056274 56.795460,293.332306 58.447441,294.117157 
	C59.440807,294.589172 60.137463,295.689850 60.961082,296.514343 
	C86.618385,322.198578 112.274895,347.883575 138.181519,373.818451 
z"/>
</svg>